<?xml version="1.0" encoding="UTF-8"?>
<svg id="Lager_2" data-name="Lager 2" xmlns="http://www.w3.org/2000/svg" viewBox="0 0 54.34 106.3">
  <defs>
    <style>
      .cls-1 {
        fill: #77bae7;
      }
    </style>
  </defs>
  <g id="Lager_3" data-name="Lager 3">
    <path class="cls-1" d="M54.33,52.74c-.09-1.32-.63-2.56-1.51-3.54L10.3,1.96h0C9.25,.79,7.78,.09,6.22,0,4.66-.07,3.12,.47,1.96,1.51,.79,2.56,.09,4.03,0,5.59c-.08,1.56,.46,3.1,1.51,4.26L40.49,53.15,1.51,96.44c-1.05,1.16-1.59,2.7-1.51,4.26,.08,1.56,.78,3.03,1.95,4.08,1.16,1.05,2.7,1.59,4.26,1.51,1.56-.08,3.03-.78,4.08-1.95L52.82,57.1h0c1.07-1.19,1.62-2.76,1.51-4.36h0Z"/>
  </g>
</svg>