<?xml version="1.0" encoding="UTF-8"?>
<svg id="Lager_2" data-name="Lager 2" xmlns="http://www.w3.org/2000/svg" viewBox="0 0 163.43 147.5">
  <defs>
    <style>
      .cls-1 {
        fill: #1d1d1b;
        fill-rule: evenodd;
      }
    </style>
  </defs>
  <g id="Lager_4" data-name="Lager 4">
    <path class="cls-1" d="M8.88,44.43l119.32-27.06-1.65-7.29c-.46-2.08-2.55-3.38-4.61-2.92L10.11,32.34c-2.08,.46-3.38,2.54-2.92,4.61,.57,2.48,1.12,5,1.69,7.48h0Zm-.99-18.7L121.12,.25c5.4-1.21,10.78,2.19,12,7.59l11.87,52.45h-7.09l-5.38-23.75L13.2,63.59l7.39,32.57,.66,2.88c.26,1.16,1.41,1.91,2.59,1.63l.88-.2v6.94l-.13,.04c-4.48,1.01-8.95-1.84-9.98-6.3L.26,37.74c-.61-2.7-.17-5.24,1.3-7.59,1.47-2.35,3.62-3.82,6.32-4.43h0Zm29.39,36.44c-5.53,0-10.03,4.52-10.03,10.05v65.25c0,5.53,4.5,10.03,10.03,10.03h116.1c5.53,0,10.05-4.52,10.05-10.03V72.22c0-5.53-4.52-10.05-10.05-10.05H37.28Zm113.66,29.21v-13.28c0-.86-.68-1.54-1.54-1.54h-29.71c-.84,0-1.54,.7-1.54,1.54v13.28c0,.84,.7,1.54,1.54,1.54h29.71c.83,0,1.54-.68,1.54-1.54Zm-21.9,40.27c-.86,0-1.56-.7-1.56-1.54v-3.09c0-.84,.7-1.54,1.56-1.54h20.34c.84,0,1.54,.7,1.54,1.54v3.09c0,.84-.7,1.54-1.54,1.54h-20.34Zm-28.38,0c-.84,0-1.54-.7-1.54-1.54v-3.07c0-.86,.7-1.54,1.54-1.54h20.35c.84,0,1.54,.7,1.54,1.54v3.07c0,.84-.7,1.54-1.54,1.54h-20.35Zm-28.37,0c-.84,0-1.54-.7-1.54-1.54v-3.07c0-.86,.7-1.54,1.54-1.54h20.35c.84,0,1.54,.7,1.54,1.54v3.07c0,.84-.7,1.54-1.54,1.54h-20.35Zm-28.36,0c-.84,0-1.54-.7-1.54-1.54v-3.07c0-.86,.7-1.54,1.54-1.54h20.35c.84,0,1.54,.7,1.54,1.54v3.07c0,.84-.7,1.54-1.54,1.54h-20.35Z"/>
  </g>
</svg>