<?xml version="1.0" encoding="UTF-8"?>
<svg id="Lager_2" data-name="Lager 2" xmlns="http://www.w3.org/2000/svg" viewBox="0 0 1036.92 604.07">
  <defs>
    <style>
      .cls-1 {
        fill: #fffdfa;
        stroke-width: 5px;
      }

      .cls-1, .cls-2 {
        stroke: #f8aa23;
        stroke-miterlimit: 10;
      }

      .cls-3, .cls-2 {
        fill: #f7b15c;
      }

      .cls-2 {
        stroke-width: 15px;
      }
    </style>
  </defs>
  <g id="Logga">
    <rect class="cls-2" x="7.5" y="259.7" width="1021.92" height="336.88"/>
    <rect class="cls-3" x="483.64" y="193.68" width="69.63" height="57.39"/>
    <path class="cls-3" d="M381.08-44.16h0V300.25c0,38.43-31.2,69.63-69.63,69.63h0V25.47c0-38.43,31.2-69.63,69.63-69.63Z" transform="translate(183.4 509.12) rotate(-90)"/>
    <rect class="cls-3" x="139.24" y="57.47" width="69.63" height="84.69"/>
    <path class="cls-3" d="M482.7-343.46h30.11c21.81,0,39.52,17.71,39.52,39.52V378.28c0,19.22-15.6,34.82-34.82,34.82h0c-19.22,0-34.82-15.6-34.82-34.82V-343.46h0Z" transform="translate(482.7 552.34) rotate(-90)"/>
  </g>
  <g id="Lager_3" data-name="Lager 3">
    <g>
      <path class="cls-1" d="M253.32,522.64l2.74-35.29,3.56-68.92,1.51-48.8c.09-5.24,.14-10.48,.14-15.71,0-3.95-.05-10.43-.14-19.44,12.13,.28,21.88,.41,29.23,.41s16.77-.21,29.09-.62c12.32-.41,22.75-.62,31.3-.62,12.32,0,21.44,.78,27.37,2.34,5.93,1.56,11.28,4.02,16.06,7.37,4.78,3.36,8.73,7.28,11.86,11.79,3.12,4.5,5.47,9.63,7.03,15.37,1.56,5.74,2.35,11.6,2.35,17.57,0,12.32-2.99,23.57-8.96,33.77-5.97,10.2-14.38,17.83-25.22,22.88-10.84,5.06-23.02,7.58-36.53,7.58-4.96,0-10.71-.55-17.23-1.65-.74-4.23-2.12-10.52-4.14-18.88-2.02-8.36-3.68-14.56-4.96-18.61,4.04,.83,8.27,1.24,12.68,1.24,9.28,0,16.2-2.23,20.75-6.69,4.55-4.46,6.82-9.9,6.82-16.33,0-3.12-.51-5.9-1.52-8.34-1.01-2.43-2.62-4.43-4.82-6-2.21-1.56-4.64-2.57-7.31-3.03-2.67-.46-5.7-.69-9.1-.69s-6.75,.09-10.34,.28l-11.58,.83c-1.18,17.74-2.09,37.45-2.73,59.13-1.18,39.52-1.77,63.22-1.77,71.13v17.92l-27.45-.28c-3.86,0-13.43,.09-28.69,.28Z"/>
      <path class="cls-1" d="M595.85,476.74c-1.1,5.41-2.44,12.94-4,22.61-1.56,9.67-2.62,17.15-3.17,22.47-19.67,2.94-37.22,4.41-52.66,4.41s-28.74-1.86-41.56-5.58-24.58-9.83-35.29-18.33c-10.71-8.5-18.36-18.49-22.95-29.98-4.6-11.49-6.89-24.35-6.89-38.6,0-16.63,3.1-31.59,9.3-44.87,6.2-13.28,15.12-24.35,26.74-33.22,11.62-8.87,24.37-15.21,38.25-19.02,13.87-3.81,28.21-5.72,43.01-5.72,13.6,0,30.42,1.75,50.45,5.24l.28,11.58c.18,5.05,.46,10.61,.83,16.68l.96,15.71c-10.75-2.57-19.46-4.32-26.12-5.24-6.66-.92-12.84-1.38-18.54-1.38-12.41,0-23.57,2.48-33.5,7.44-9.92,4.96-17.74,12.18-23.43,21.64-5.7,9.47-8.55,19.94-8.55,31.43,0,10.48,2.39,19.46,7.17,26.95,4.78,7.49,11.23,13.28,19.37,17.37,8.13,4.09,18.17,6.13,30.12,6.13,6.52,0,13.62-.53,21.3-1.58,7.67-1.06,17.3-3.1,28.88-6.13Z"/>
      <path class="cls-1" d="M664.08,522.64c4.56-44.66,7.3-93.82,8.22-147.49l-58.67,1.52,.69-15.3c.37-8.18,.64-17.14,.83-26.88,26.09,.19,56.5,.28,91.22,.28l34.04-.14h33.07l17.91-.14-.83,13.5c-.37,7.24-.62,13.23-.76,17.96s-.21,8.3-.21,10.72c-19.65-1.01-35.85-1.52-48.61-1.52h-9.64c-1.39,16.24-2.45,31.23-3.19,44.99-1.02,19.72-1.8,38.87-2.36,57.44s-.83,33.59-.83,45.06c-15.06-.18-24.8-.28-29.2-.28-3.95,0-14.51,.09-31.68,.28Z"/>
    </g>
  </g>
</svg>