<?xml version="1.0" encoding="UTF-8"?>
<svg id="Lager_2" data-name="Lager 2" xmlns="http://www.w3.org/2000/svg" viewBox="0 0 176.42 134.41">
  <defs>
    <style>
      .cls-1 {
        fill: #010101;
      }
    </style>
  </defs>
  <g id="Lager_3" data-name="Lager 3">
    <path class="cls-1" d="M10.5,0C4.7,0,0,4.7,0,10.5s4.7,10.5,10.5,10.5H165.92c5.8,0,10.5-4.7,10.5-10.5s-4.7-10.5-10.5-10.5H10.5Zm0,56.71c-5.8,0-10.5,4.7-10.5,10.5s4.7,10.5,10.5,10.5H165.92c5.8,0,10.5-4.7,10.5-10.5s-4.7-10.5-10.5-10.5H10.5Zm0,56.71c-5.8,0-10.5,4.7-10.5,10.5s4.7,10.5,10.5,10.5H165.92c5.8,0,10.5-4.7,10.5-10.5s-4.7-10.5-10.5-10.5H10.5Z"/>
  </g>
</svg>