<?xml version="1.0" encoding="UTF-8"?>
<svg id="Lager_2" data-name="Lager 2" xmlns="http://www.w3.org/2000/svg" viewBox="0 0 114.26 143.04">
  <defs>
    <style>
      .cls-1 {
        fill: #010101;
      }
    </style>
  </defs>
  <g id="Lager_3" data-name="Lager 3">
    <path class="cls-1" d="M114.2,122.11l-2.31-24.55c-1.68-16.78-12.8-30.42-27.9-35.67-7.13,6.29-16.57,10.28-26.86,10.28s-19.72-3.78-26.86-10.28c-15.11,5.25-26.23,18.88-27.9,35.67L.06,122.11c-.63,6.08,3.57,11.54,9.44,12.8l33.36,6.71c9.44,1.89,19.3,1.89,28.74,0l33.36-6.71c5.88-1.26,9.86-6.71,9.23-12.8h0Z"/>
    <path class="cls-1" d="M42.44,59.58c4.41,2.31,9.44,3.57,14.69,3.57s10.28-1.26,14.69-3.57c10.07-5.25,16.78-15.74,16.78-27.9C88.6,14.27,74.54,0,56.92,0S25.24,14.06,25.24,31.68c.21,11.96,7.13,22.45,17.2,27.9h0Z"/>
  </g>
</svg>