<?xml version="1.0" encoding="UTF-8"?>
<svg id="Lager_2" data-name="Lager 2" xmlns="http://www.w3.org/2000/svg" viewBox="0 0 531.98 532">
  <g id="Lager_1-2" data-name="Lager 1">
    <path d="M524.47,489.3l-124.35-124.36c77.48-96.91,61.72-238.27-35.18-315.75C268.03-28.28,126.67-12.53,49.19,84.38-28.28,181.28-12.53,322.65,84.37,400.13c82.02,65.57,198.53,65.58,280.55,.01l124.35,124.35c9.6,9.84,25.35,10.04,35.2,.45,9.84-9.6,10.04-25.35,.45-35.2-.14-.15-.29-.3-.45-.45h0ZM51.02,225.3c0-96.22,78-174.23,174.23-174.23s174.23,78,174.23,174.23-78,174.23-174.23,174.23c-96.18-.11-174.12-78.05-174.23-174.23h0Z"/>
  </g>
</svg>