<?xml version="1.0" encoding="UTF-8"?>
<svg id="Lager_2" data-name="Lager 2" xmlns="http://www.w3.org/2000/svg" viewBox="0 0 100 94.6">
  <defs>
    <style>
      .cls-1 {
        fill: #010101;
      }
    </style>
  </defs>
  <g id="Lager_3" data-name="Lager 3">
    <path class="cls-1" d="M.02,42.82c0,3.21,1.55,6.05,3.9,7.88v41.86c0,1.12,.91,2.03,2.03,2.03H94.01c1.12,0,2.03-.91,2.03-2.03V50.71c2.36-1.83,3.91-4.67,3.91-7.88,0-7.81,.04-7.24,.04-7.24,0-.36-.1-.7-.26-1l-6.24-19.01s-.03-.05-.04-.08V2.03c0-1.12-.91-2.03-2.03-2.03H8.41c-1.12,0-2.03,.91-2.03,2.03V15.88L.12,34.95c-.19,.57-.1,7.27-.1,7.88h0Zm31.96-5.21v5.21c0,3.29-2.67,5.96-5.96,5.96s-5.96-2.67-5.96-5.96v-5.21h11.91Zm15.98,0v5.21c0,3.29-2.67,5.96-5.96,5.96s-5.96-2.67-5.96-5.96v-5.21h11.92Zm15.98,0v5.21c0,3.29-2.67,5.96-5.96,5.96s-5.96-2.67-5.96-5.96v-5.21h11.92Zm15.98,0v5.21c0,3.29-2.67,5.96-5.96,5.96s-5.96-2.67-5.96-5.96v-5.21h11.91Zm15.98,0v5.21c0,3.29-2.67,5.96-5.96,5.96s-5.96-2.67-5.96-5.96v-5.21h11.92Zm-79.89,5.21c0,3.29-2.67,5.96-5.96,5.96s-5.96-2.67-5.96-5.96v-5.21h11.92v5.21Zm4.06,47.71v-26.03h14.95v26.03h-14.95Zm71.92,0H39.08v-28.06c0-1.12-.91-2.03-2.03-2.03H18.03c-1.12,0-2.03,.91-2.03,2.03v28.06H7.99V52.63c.66,.14,1.35,.21,2.05,.21,3.28,0,6.16-1.6,7.99-4.04,1.83,2.44,4.72,4.04,7.99,4.04s6.16-1.6,7.99-4.04c1.83,2.44,4.72,4.04,7.99,4.04s6.16-1.6,7.99-4.04c1.83,2.44,4.72,4.04,7.99,4.04s6.16-1.6,7.99-4.04c1.83,2.44,4.72,4.04,7.99,4.04s6.16-1.6,7.99-4.04c1.83,2.44,4.72,4.04,7.99,4.04,.7,0,1.39-.08,2.05-.21v37.9s0,0,0,0ZM10.45,4.06H89.38V14.17H10.45V4.06Zm-.56,14.17H90.09l5.03,15.31H4.86l5.03-15.31Z"/>
  </g>
</svg>