<?xml version="1.0" encoding="UTF-8"?>
<svg id="Lager_2" data-name="Lager 2" xmlns="http://www.w3.org/2000/svg" viewBox="0 0 158.47 99.04">
  <defs>
    <style>
      .cls-1 {
        fill: #010101;
      }
    </style>
  </defs>
  <g id="Lager_3" data-name="Lager 3">
    <g>
      <path class="cls-1" d="M3.3,79.23H19.81v6.6H3.3v-6.6Z"/>
      <path class="cls-1" d="M135.36,79.23h19.81v6.6h-19.81v-6.6Z"/>
      <path class="cls-1" d="M46.22,79.23h62.73v6.6H46.22v-6.6Z"/>
      <path class="cls-1" d="M122.15,99.04c-9.1,0-16.51-7.41-16.51-16.51s7.41-16.51,16.51-16.51,16.51,7.41,16.51,16.51-7.41,16.51-16.51,16.51h0Zm0-26.41c-5.46,0-9.9,4.44-9.9,9.9s4.44,9.9,9.9,9.9,9.9-4.44,9.9-9.9-4.44-9.9-9.9-9.9h0Z"/>
      <path class="cls-1" d="M158.47,85.84h-26.41v-3.3c0-5.46-4.44-9.9-9.9-9.9s-9.9,4.44-9.9,9.9v3.3h-39.62V0h85.84V85.84Zm-20.14-6.6h13.54V6.6H79.24V79.23h26.74c1.53-7.53,8.2-13.2,16.17-13.2s14.64,5.68,16.17,13.2h0Z"/>
      <path class="cls-1" d="M33.01,99.04c-9.1,0-16.51-7.41-16.51-16.51s7.41-16.51,16.51-16.51,16.51,7.41,16.51,16.51-7.41,16.51-16.51,16.51h0Zm0-26.41c-5.46,0-9.9,4.44-9.9,9.9s4.44,9.9,9.9,9.9,9.9-4.44,9.9-9.9-4.44-9.9-9.9-9.9h0Z"/>
      <path class="cls-1" d="M66.03,85.84h-23.11v-3.3c0-5.46-4.44-9.9-9.9-9.9s-9.9,4.44-9.9,9.9v3.3H0v-10.88c0-10.46,5.54-19.95,14.45-24.76l.77-.3,9.56-2.38,4.51-15.58c3.75-7.48,11.11-12.12,19.22-12.12h17.52V85.84Zm-16.84-6.6h10.24V26.41h-10.92c-5.5,0-10.53,3.14-13.18,8.22l-5.24,18.36-12.84,3.2c-6.57,3.72-10.64,10.87-10.64,18.76v4.28h10.24c1.53-7.53,8.2-13.2,16.17-13.2s14.64,5.68,16.17,13.2h0Z"/>
    </g>
  </g>
</svg>